<?xml version="1.0" encoding="utf-8"?>
<!-- Generator: Adobe Illustrator 25.2.1, SVG Export Plug-In . SVG Version: 6.00 Build 0)  -->
<svg version="1.1" id="レイヤー_1" xmlns="http://www.w3.org/2000/svg" xmlns:xlink="http://www.w3.org/1999/xlink" x="0px"
	 y="0px" viewBox="0 0 24 24" style="enable-background:new 0 0 24 24;" xml:space="preserve">
<style type="text/css">
	.st0{fill:#2891FF;}
</style>
<path class="st0" d="M13,3.5v-1c0-0.6-0.4-1-1-1s-1,0.4-1,1v1c-5.5,0.4-9.4,3.9-9.9,9.1c0,0.3,0.1,0.6,0.3,0.8
	c0.2,0.2,0.5,0.3,0.7,0.3H11v5.2c0,1-0.7,1.7-1.7,1.7c-1,0-1.7-0.7-1.7-1.7c0-0.6-0.4-1-1-1s-1,0.4-1,1c0,2.1,1.6,3.7,3.7,3.7
	s3.7-1.6,3.7-3.7v-5.2h8.9c0.3,0,0.5-0.1,0.7-0.3s0.3-0.5,0.3-0.8C22.4,7.5,18.4,3.9,13,3.5z M3.3,11.6C4.1,7.9,7.5,5.4,12,5.4
	c4.5,0,7.9,2.4,8.7,6.2H3.3z"/>
</svg>
