<?xml version="1.0" encoding="utf-8"?>
<!-- Generator: Adobe Illustrator 25.2.1, SVG Export Plug-In . SVG Version: 6.00 Build 0)  -->
<svg version="1.1" id="レイヤー_1" xmlns="http://www.w3.org/2000/svg" xmlns:xlink="http://www.w3.org/1999/xlink" x="0px"
	 y="0px" viewBox="0 0 24 24" style="enable-background:new 0 0 24 24;" xml:space="preserve">
<style type="text/css">
	.st0{fill:#FFAA00;}
</style>
<g>
	<path class="st0" d="M12,4.6c-4.1,0-7.4,3.3-7.4,7.4s3.3,7.4,7.4,7.4s7.4-3.3,7.4-7.4S16.1,4.6,12,4.6z M12,17.4
		c-3,0-5.4-2.4-5.4-5.4S9,6.6,12,6.6S17.4,9,17.4,12S15,17.4,12,17.4z"/>
	<path class="st0" d="M12,3.2c0.6,0,1-0.4,1-1v-1c0-0.6-0.4-1-1-1s-1,0.4-1,1v1C11,2.8,11.4,3.2,12,3.2z"/>
	<path class="st0" d="M12,20.8c-0.6,0-1,0.4-1,1v1c0,0.6,0.4,1,1,1s1-0.4,1-1v-1C13,21.2,12.6,20.8,12,20.8z"/>
	<path class="st0" d="M4.4,5.8C4.6,6,4.9,6.1,5.1,6.1S5.6,6,5.8,5.8c0.4-0.4,0.4-1,0-1.4L4.7,3.3c-0.4-0.4-1-0.4-1.4,0s-0.4,1,0,1.4
		L4.4,5.8z"/>
	<path class="st0" d="M19.7,18.2c-0.4-0.4-1-0.4-1.4,0s-0.4,1,0,1.4l1.1,1.1c0.2,0.2,0.5,0.3,0.7,0.3s0.5-0.1,0.7-0.3
		c0.4-0.4,0.4-1,0-1.4L19.7,18.2z"/>
	<path class="st0" d="M4.4,18.2l-1.1,1.1c-0.4,0.4-0.4,1,0,1.4C3.5,20.9,3.8,21,4,21c0.2,0,0.5-0.1,0.7-0.3l1.1-1.1
		c0.4-0.4,0.4-1,0-1.4S4.8,17.8,4.4,18.2z"/>
	<path class="st0" d="M19,6.1c0.3,0,0.5-0.1,0.7-0.3l1.1-1.1c0.4-0.4,0.4-1,0-1.4s-1-0.4-1.4,0l-1.1,1.1c-0.4,0.4-0.4,1,0,1.4
		C18.5,6,18.7,6.1,19,6.1z"/>
	<path class="st0" d="M2.2,11h-1c-0.6,0-1,0.4-1,1s0.4,1,1,1h1c0.6,0,1-0.4,1-1S2.8,11,2.2,11z"/>
	<path class="st0" d="M22.8,11h-1c-0.6,0-1,0.4-1,1s0.4,1,1,1h1c0.6,0,1-0.4,1-1S23.4,11,22.8,11z"/>
</g>
</svg>
